<svg data-v-423bf9ae="" xmlns="http://www.w3.org/2000/svg" viewBox="0 0 366 90" class="iconLeft"><!----><!----><!----><g data-v-423bf9ae="" id="3f174c03-80a9-4df2-8d5a-a366aab71fcd" fill="white" transform="matrix(6.335797075835233,0,0,6.335797075835233,102.58710833344114,-9.202744645149082)"><path d="M7.22 9.93C6.91 9.42 6.42 9.10 5.82 8.88C7.26 8.62 8.33 7.82 8.33 6.34C8.33 4.83 6.88 3.82 5.18 3.82L1.17 3.82L1.17 13.15L2.65 13.15L2.65 9.06C2.79 9.07 2.95 9.07 3.14 9.07C3.92 9.09 5.03 9.20 5.66 10.11C6.30 11.00 6.48 12.16 7.01 13.15L8.87 13.15C8.12 12.18 7.86 11.04 7.22 9.93ZM4.77 5.00C6.05 5.00 6.78 5.57 6.78 6.53C6.78 7.45 6.17 8.01 5.00 8.01L2.65 8.01L2.65 5.00ZM10.70 13.29C11.21 13.29 11.62 12.88 11.62 12.38C11.62 11.89 11.21 11.48 10.70 11.48C10.19 11.48 9.79 11.89 9.79 12.38C9.79 12.88 10.19 13.29 10.70 13.29ZM19.61 13.15L21.22 13.15L17.53 3.82L16.03 3.82L12.34 13.15L13.94 13.15L14.83 10.75L18.73 10.73ZM15.27 9.57L16.79 5.45L18.29 9.57ZM22.85 13.29C23.36 13.29 23.77 12.88 23.77 12.38C23.77 11.89 23.36 11.48 22.85 11.48C22.34 11.48 21.93 11.89 21.93 12.38C21.93 12.88 22.34 13.29 22.85 13.29ZM27.31 3.82L25.83 3.82L25.83 13.15L27.31 13.15ZM30.30 13.29C30.81 13.29 31.22 12.88 31.22 12.38C31.22 11.89 30.81 11.48 30.30 11.48C29.79 11.48 29.39 11.89 29.39 12.38C29.39 12.88 29.79 13.29 30.30 13.29ZM36.43 3.82L33.28 3.82L33.28 13.15L36.43 13.15C39.68 13.15 41.46 11.10 41.46 8.47C41.46 5.86 39.68 3.82 36.43 3.82ZM36.20 11.94L34.77 11.94L34.77 5.03L36.20 5.03C38.69 5.03 39.91 6.39 39.91 8.47C39.91 10.57 38.69 11.94 36.20 11.94Z"></path></g><!----><g data-v-423bf9ae="" id="3a6bc834-449e-426c-9337-cc024e425c9d" transform="matrix(2.812499664723913,0,0,2.812499664723913,0.000005364417390296694,-0.018124997930137)" stroke="none" fill="white"><path d="M6.651 27h6.024v5.01h6.651V27h6.024v5.01H32v-32h-6.651V5h-6.024V.01h-6.651V5H6.651V.01H0v32h6.651V27zM19.325 7h6.024v4.666h-6.024V7zm0 6.666h6.024v4.667h-6.024v-4.667zm0 6.667h6.024V25h-6.024v-4.667zM6.651 7h6.024v4.666H6.651V7zm0 6.666h6.024v4.667H6.651v-4.667zm0 6.667h6.024V25H6.651v-4.667z"></path></g><!----></svg>