<svg data-v-fde0c5aa="" xmlns="http://www.w3.org/2000/svg" viewBox="0 0 300 300" class="font"><!----><defs data-v-fde0c5aa=""><!----></defs><rect data-v-fde0c5aa="" fill="#E5EAFE" x="0" y="0" width="300px" height="300px" class="logo-background-square"></rect><defs data-v-fde0c5aa=""><linearGradient data-v-fde0c5aa="" gradientTransform="rotate(25)" id="e81dc47d-8a95-4c5d-9a18-1da28d0580e2" x1="0%" y1="0%" x2="100%" y2="0%"><stop data-v-fde0c5aa="" offset="0%" stop-color="#5106FF" stop-opacity="1"></stop><stop data-v-fde0c5aa="" offset="100%" stop-color="#61CBF2" stop-opacity="1"></stop></linearGradient></defs><g data-v-fde0c5aa="" id="6505a982-7889-4049-ab66-33db9e7a70cd" fill="url(#e81dc47d-8a95-4c5d-9a18-1da28d0580e2)" transform="matrix(5.460411888827093,0,0,5.460411888827093,33.61131767347595,103.2861759265624)"><path d="M7.22 9.93C6.91 9.42 6.42 9.10 5.82 8.88C7.26 8.62 8.33 7.82 8.33 6.34C8.33 4.83 6.88 3.82 5.18 3.82L1.17 3.82L1.17 13.15L2.65 13.15L2.65 9.06C2.79 9.07 2.95 9.07 3.14 9.07C3.92 9.09 5.03 9.20 5.66 10.11C6.30 11.00 6.48 12.16 7.01 13.15L8.87 13.15C8.12 12.18 7.86 11.04 7.22 9.93ZM4.77 5.00C6.05 5.00 6.78 5.57 6.78 6.53C6.78 7.45 6.17 8.01 5.00 8.01L2.65 8.01L2.65 5.00ZM10.70 13.29C11.21 13.29 11.62 12.88 11.62 12.38C11.62 11.89 11.21 11.48 10.70 11.48C10.19 11.48 9.79 11.89 9.79 12.38C9.79 12.88 10.19 13.29 10.70 13.29ZM19.61 13.15L21.22 13.15L17.53 3.82L16.03 3.82L12.34 13.15L13.94 13.15L14.83 10.75L18.73 10.73ZM15.27 9.57L16.79 5.45L18.29 9.57ZM22.85 13.29C23.36 13.29 23.77 12.88 23.77 12.38C23.77 11.89 23.36 11.48 22.85 11.48C22.34 11.48 21.93 11.89 21.93 12.38C21.93 12.88 22.34 13.29 22.85 13.29ZM27.31 3.82L25.83 3.82L25.83 13.15L27.31 13.15ZM30.30 13.29C30.81 13.29 31.22 12.88 31.22 12.38C31.22 11.89 30.81 11.48 30.30 11.48C29.79 11.48 29.39 11.89 29.39 12.38C29.39 12.88 29.79 13.29 30.30 13.29ZM36.43 3.82L33.28 3.82L33.28 13.15L36.43 13.15C39.68 13.15 41.46 11.10 41.46 8.47C41.46 5.86 39.68 3.82 36.43 3.82ZM36.20 11.94L34.77 11.94L34.77 5.03L36.20 5.03C38.69 5.03 39.91 6.39 39.91 8.47C39.91 10.57 38.69 11.94 36.20 11.94Z"></path></g><!----><!----></svg>